<?xml version="1.0" encoding="UTF-8" standalone="no"?>
<!-- Created with Inkscape (http://www.inkscape.org/) -->

<svg
   xmlns:dc="http://purl.org/dc/elements/1.1/"
   xmlns:cc="http://creativecommons.org/ns#"
   xmlns:rdf="http://www.w3.org/1999/02/22-rdf-syntax-ns#"
   xmlns:svg="http://www.w3.org/2000/svg"
   xmlns="http://www.w3.org/2000/svg"
   xmlns:sodipodi="http://sodipodi.sourceforge.net/DTD/sodipodi-0.dtd"
   xmlns:inkscape="http://www.inkscape.org/namespaces/inkscape"
   version="1.1"
   viewBox="0 0 585 241.83"
   id="svg14"
   sodipodi:docname="Logo.Optimized.svg"
   inkscape:version="0.92.1 r15371">
  <defs
     id="defs18" />
  <sodipodi:namedview
     pagecolor="#ffffff"
     bordercolor="#666666"
     borderopacity="1"
     objecttolerance="10"
     gridtolerance="10"
     guidetolerance="10"
     inkscape:pageopacity="0"
     inkscape:pageshadow="2"
     inkscape:window-width="695"
     inkscape:window-height="480"
     id="namedview16"
     showgrid="false"
     inkscape:zoom="0.77094017"
     inkscape:cx="292.5"
     inkscape:cy="120.915"
     inkscape:window-x="0"
     inkscape:window-y="0"
     inkscape:window-maximized="0"
     inkscape:current-layer="svg14" />
  <metadata
     id="metadata2">
    <rdf:RDF>
      <cc:Work
         rdf:about="">
        <dc:format>image/svg+xml</dc:format>
        <dc:type
           rdf:resource="http://purl.org/dc/dcmitype/StillImage" />
        <dc:title />
      </cc:Work>
    </rdf:RDF>
  </metadata>
  <g
     fill="#000000"
     transform="translate(-1784.2892,3768.5925)"
     id="g12"
     style="fill:#ffffff">
    <path
       d="m1952.3-3694.5,25.569-8.8665,0.5803,137.42-26.314,9.1614zm81.953,136.9c-7.6447-1.7869-13.299-6.0358-21.531-16.178-10.38-12.789-29.939-39.184-29.939-40.403,0-0.199,0.3152-1.5299,0.7004-2.9576,0.6904-2.5585,0.718-2.5988,1.9156-2.7995,8.3231-1.3949,19.26-5.0488,27.456-9.1724,8.5229-4.2882,14.843-8.8319,21.232-15.264,5.4215-5.458,8.2414-9.3278,11.31-15.521,3.7988-7.6662,5.2335-13.119,5.5658-21.154,0.8711-21.063-11.386-37.44-30.543-40.812-3.3148-0.5834-11.337-0.6568-16.364-0.1499-10.591,1.0681-21.344,4.4389-32.888,10.31-6.6056,3.3595-12.189,6.8259-21.205,13.164-8.7171,6.1286-7.4874,5.759-10.02,3.0114-1.1744-1.2741-2.1352-2.4269-2.1352-2.5618,0-0.5823,9.9108-9.6822,16.371-15.032,10.801-8.9435,23.396-15.876,36.685-20.192,10.827-3.5162,19.239-4.9159,31.561-5.2512,9.8519-0.2682,15.067,0.3562,21.793,2.609,20.675,6.925,33.842,26.342,33.842,49.907,0,14.311-4.5741,26.572-13.734,36.817-4.5425,5.0803-10.219,9.7506-15.749,12.958-18.768,10.884-29.415,16.448-34.657,18.11-1.091,0.3457-1.7597,0.7338-1.6723,0.9703,0.3028,0.8191,12.13,15.824,17.15,21.758,7.1269,8.4243,10.701,11.942,15.348,15.105,3.2139,2.1875,5.1708,2.8611,8.3514,2.8748,3.092,0.013,5.3158-0.6097,8.8667-2.4841,3.605-1.9031,7.219-4.6975,11.149-8.6207,1.7681-1.7652,3.433-3.2094,3.6996-3.2094,0.5981,0,4.9143,3.9092,4.9063,4.4437-0.01,0.5862-6.2473,8.2634-9.8981,12.181-7.7031,8.2653-16.562,14.472-24.076,16.869-2.3353,0.7448-3.591,0.9241-7.1625,1.0224-2.9348,0.081-4.9752-0.031-6.3297-0.3479z"
       id="path4"
       style="fill:#ffffff" />
    <path
       d="m1864.3-3682.5c-27.614,0-50,22.386-50,50s22.386,50,50,50,50-22.386,50-50c0-3.4305-0.3732-6.7639-1.0312-10h-20.688-28.281v20h28.281c-4.1215,11.646-15.223,20-28.281,20-16.568,0-30-13.432-30-30,0-16.569,13.432-30,30-30h40c-9.1223-12.141-23.644-20-40-20z"
       id="path6"
       style="fill:#ffffff" />
    <path
       d="m2289.3-3682.5c-27.614,0-50,22.386-50,50s22.386,50,50,50,50-22.386,50-50c0-3.4305-0.3732-6.7639-1.0313-10h-20.688-28.281v20h28.281c-4.1214,11.646-15.223,20-28.281,20-16.569,0-30-13.432-30-30,0-16.569,13.431-30,30-30h40c-9.1223-12.141-23.644-20-40-20z"
       id="path8"
       style="fill:#ffffff" />
    <path
       d="m2149.3-3582.5c-27.614,0-50-22.386-50-50s22.386-50,50-50,50,22.386,50,50c0,3.4304-0.3732,6.7638-1.0312,10h-20.688-28.281v-20h28.281c-4.1215-11.646-15.223-20-28.281-20-16.568,0-30,13.431-30,30,0,16.568,13.432,30,30,30h40c-9.1223,12.141-23.644,20-40,20z"
       id="path10"
       style="fill:#ffffff" />
  </g>
</svg>
